<svg width="86" height="86" viewBox="0 0 86 86" fill="none" xmlns="http://www.w3.org/2000/svg">
<path d="M48.8691 15.8613C52.5154 25.7152 60.2848 33.4846 70.1387 37.1309L86 43L70.1387 48.8691C60.2848 52.5154 52.5154 60.2848 48.8691 70.1387L43 86L37.1309 70.1387C33.4846 60.2848 25.7152 52.5154 15.8613 48.8691L0 43L15.8613 37.1309C25.7152 33.4846 33.4846 25.7152 37.1309 15.8613L43 0L48.8691 15.8613ZM42.5 37C39.4624 37 37 39.4624 37 42.5C37 45.5376 39.4624 48 42.5 48C45.5376 48 48 45.5376 48 42.5C48 39.4624 45.5376 37 42.5 37Z" fill="#D9D9D9"/>
</svg>
